%TF.GenerationSoftware,KiCad,Pcbnew,7.0.10-7.0.10~ubuntu22.04.1*%
%TF.CreationDate,2024-03-22T20:20:20-04:00*%
%TF.ProjectId,mechanicalkeyboard-touchid-hub,6d656368-616e-4696-9361-6c6b6579626f,rev?*%
%TF.SameCoordinates,Original*%
%TF.FileFunction,Drillmap*%
%TF.FilePolarity,Positive*%
%FSLAX45Y45*%
G04 Gerber Fmt 4.5, Leading zero omitted, Abs format (unit mm)*
G04 Created by KiCad (PCBNEW 7.0.10-7.0.10~ubuntu22.04.1) date 2024-03-22 20:20:20*
%MOMM*%
%LPD*%
G01*
G04 APERTURE LIST*
%ADD10C,0.100000*%
%ADD11C,0.200000*%
G04 APERTURE END LIST*
D10*
X4292600Y-3759200D02*
X11353800Y-3759200D01*
X11353800Y-5486400D01*
X4292600Y-5486400D01*
X4292600Y-3759200D01*
D11*
D10*
X4653600Y-4145600D02*
X4693600Y-4185600D01*
X4693600Y-4145600D02*
X4653600Y-4185600D01*
X4806000Y-3840800D02*
X4846000Y-3880800D01*
X4846000Y-3840800D02*
X4806000Y-3880800D01*
X4856800Y-4501200D02*
X4896800Y-4541200D01*
X4896800Y-4501200D02*
X4856800Y-4541200D01*
X4907600Y-5009200D02*
X4947600Y-5049200D01*
X4947600Y-5009200D02*
X4907600Y-5049200D01*
X5060000Y-4094800D02*
X5100000Y-4134800D01*
X5100000Y-4094800D02*
X5060000Y-4134800D01*
X5263200Y-4399600D02*
X5303200Y-4439600D01*
X5303200Y-4399600D02*
X5263200Y-4439600D01*
X5364800Y-4348800D02*
X5404800Y-4388800D01*
X5404800Y-4348800D02*
X5364800Y-4388800D01*
X5568000Y-5060000D02*
X5608000Y-5100000D01*
X5608000Y-5060000D02*
X5568000Y-5100000D01*
X5771200Y-4196400D02*
X5811200Y-4236400D01*
X5811200Y-4196400D02*
X5771200Y-4236400D01*
X5771200Y-4856800D02*
X5811200Y-4896800D01*
X5811200Y-4856800D02*
X5771200Y-4896800D01*
X6450000Y-5310000D02*
X6490000Y-5350000D01*
X6490000Y-5310000D02*
X6450000Y-5350000D01*
X6634800Y-4399600D02*
X6674800Y-4439600D01*
X6674800Y-4399600D02*
X6634800Y-4439600D01*
X6685600Y-4856800D02*
X6725600Y-4896800D01*
X6725600Y-4856800D02*
X6685600Y-4896800D01*
X6787200Y-3891600D02*
X6827200Y-3931600D01*
X6827200Y-3891600D02*
X6787200Y-3931600D01*
X6888800Y-4094800D02*
X6928800Y-4134800D01*
X6928800Y-4094800D02*
X6888800Y-4134800D01*
X6990400Y-4602800D02*
X7030400Y-4642800D01*
X7030400Y-4602800D02*
X6990400Y-4642800D01*
X7041200Y-4856800D02*
X7081200Y-4896800D01*
X7081200Y-4856800D02*
X7041200Y-4896800D01*
X7193600Y-4094800D02*
X7233600Y-4134800D01*
X7233600Y-4094800D02*
X7193600Y-4134800D01*
X7396800Y-4856800D02*
X7436800Y-4896800D01*
X7436800Y-4856800D02*
X7396800Y-4896800D01*
X7447600Y-4602800D02*
X7487600Y-4642800D01*
X7487600Y-4602800D02*
X7447600Y-4642800D01*
X7549200Y-4755200D02*
X7589200Y-4795200D01*
X7589200Y-4755200D02*
X7549200Y-4795200D01*
X7752400Y-4044000D02*
X7792400Y-4084000D01*
X7792400Y-4044000D02*
X7752400Y-4084000D01*
X7803200Y-4450400D02*
X7843200Y-4490400D01*
X7843200Y-4450400D02*
X7803200Y-4490400D01*
X7904800Y-4704400D02*
X7944800Y-4744400D01*
X7944800Y-4704400D02*
X7904800Y-4744400D01*
X8108000Y-3891600D02*
X8148000Y-3931600D01*
X8148000Y-3891600D02*
X8108000Y-3931600D01*
X8311200Y-4907600D02*
X8351200Y-4947600D01*
X8351200Y-4907600D02*
X8311200Y-4947600D01*
X8362000Y-4044000D02*
X8402000Y-4084000D01*
X8402000Y-4044000D02*
X8362000Y-4084000D01*
X8463600Y-4907600D02*
X8503600Y-4947600D01*
X8503600Y-4907600D02*
X8463600Y-4947600D01*
X8463600Y-5212400D02*
X8503600Y-5252400D01*
X8503600Y-5212400D02*
X8463600Y-5252400D01*
X8550000Y-4090000D02*
X8590000Y-4130000D01*
X8590000Y-4090000D02*
X8550000Y-4130000D01*
X8870000Y-4552000D02*
X8910000Y-4592000D01*
X8910000Y-4552000D02*
X8870000Y-4592000D01*
X8980000Y-3860000D02*
X9020000Y-3900000D01*
X9020000Y-3860000D02*
X8980000Y-3900000D01*
X9022400Y-4704400D02*
X9062400Y-4744400D01*
X9062400Y-4704400D02*
X9022400Y-4744400D01*
X9022400Y-5009200D02*
X9062400Y-5049200D01*
X9062400Y-5009200D02*
X9022400Y-5049200D01*
X9060000Y-4450000D02*
X9100000Y-4490000D01*
X9100000Y-4450000D02*
X9060000Y-4490000D01*
X9110000Y-4180000D02*
X9150000Y-4220000D01*
X9150000Y-4180000D02*
X9110000Y-4220000D01*
X9180000Y-5180000D02*
X9220000Y-5220000D01*
X9220000Y-5180000D02*
X9180000Y-5220000D01*
X9540000Y-4740000D02*
X9580000Y-4780000D01*
X9580000Y-4740000D02*
X9540000Y-4780000D01*
X9581200Y-4450400D02*
X9621200Y-4490400D01*
X9621200Y-4450400D02*
X9581200Y-4490400D01*
X9784400Y-5110800D02*
X9824400Y-5150800D01*
X9824400Y-5110800D02*
X9784400Y-5150800D01*
X10241600Y-5314000D02*
X10281600Y-5354000D01*
X10281600Y-5314000D02*
X10241600Y-5354000D01*
X10394000Y-4653600D02*
X10434000Y-4693600D01*
X10434000Y-4653600D02*
X10394000Y-4693600D01*
X10597200Y-5314000D02*
X10637200Y-5354000D01*
X10637200Y-5314000D02*
X10597200Y-5354000D01*
X10648000Y-3993200D02*
X10688000Y-4033200D01*
X10688000Y-3993200D02*
X10648000Y-4033200D01*
X10749600Y-4602800D02*
X10789600Y-4642800D01*
X10789600Y-4602800D02*
X10749600Y-4642800D01*
D11*
X4548377Y-5802884D02*
X4548377Y-5602884D01*
X4548377Y-5602884D02*
X4595996Y-5602884D01*
X4595996Y-5602884D02*
X4624567Y-5612408D01*
X4624567Y-5612408D02*
X4643615Y-5631455D01*
X4643615Y-5631455D02*
X4653139Y-5650503D01*
X4653139Y-5650503D02*
X4662663Y-5688598D01*
X4662663Y-5688598D02*
X4662663Y-5717169D01*
X4662663Y-5717169D02*
X4653139Y-5755265D01*
X4653139Y-5755265D02*
X4643615Y-5774312D01*
X4643615Y-5774312D02*
X4624567Y-5793360D01*
X4624567Y-5793360D02*
X4595996Y-5802884D01*
X4595996Y-5802884D02*
X4548377Y-5802884D01*
X4748377Y-5802884D02*
X4748377Y-5669550D01*
X4748377Y-5707646D02*
X4757901Y-5688598D01*
X4757901Y-5688598D02*
X4767424Y-5679074D01*
X4767424Y-5679074D02*
X4786472Y-5669550D01*
X4786472Y-5669550D02*
X4805520Y-5669550D01*
X4872186Y-5802884D02*
X4872186Y-5669550D01*
X4872186Y-5602884D02*
X4862663Y-5612408D01*
X4862663Y-5612408D02*
X4872186Y-5621931D01*
X4872186Y-5621931D02*
X4881710Y-5612408D01*
X4881710Y-5612408D02*
X4872186Y-5602884D01*
X4872186Y-5602884D02*
X4872186Y-5621931D01*
X4995996Y-5802884D02*
X4976948Y-5793360D01*
X4976948Y-5793360D02*
X4967424Y-5774312D01*
X4967424Y-5774312D02*
X4967424Y-5602884D01*
X5100758Y-5802884D02*
X5081710Y-5793360D01*
X5081710Y-5793360D02*
X5072186Y-5774312D01*
X5072186Y-5774312D02*
X5072186Y-5602884D01*
X5329329Y-5802884D02*
X5329329Y-5602884D01*
X5329329Y-5602884D02*
X5395996Y-5745741D01*
X5395996Y-5745741D02*
X5462663Y-5602884D01*
X5462663Y-5602884D02*
X5462663Y-5802884D01*
X5643615Y-5802884D02*
X5643615Y-5698122D01*
X5643615Y-5698122D02*
X5634091Y-5679074D01*
X5634091Y-5679074D02*
X5615043Y-5669550D01*
X5615043Y-5669550D02*
X5576948Y-5669550D01*
X5576948Y-5669550D02*
X5557901Y-5679074D01*
X5643615Y-5793360D02*
X5624567Y-5802884D01*
X5624567Y-5802884D02*
X5576948Y-5802884D01*
X5576948Y-5802884D02*
X5557901Y-5793360D01*
X5557901Y-5793360D02*
X5548377Y-5774312D01*
X5548377Y-5774312D02*
X5548377Y-5755265D01*
X5548377Y-5755265D02*
X5557901Y-5736217D01*
X5557901Y-5736217D02*
X5576948Y-5726693D01*
X5576948Y-5726693D02*
X5624567Y-5726693D01*
X5624567Y-5726693D02*
X5643615Y-5717169D01*
X5738853Y-5669550D02*
X5738853Y-5869550D01*
X5738853Y-5679074D02*
X5757901Y-5669550D01*
X5757901Y-5669550D02*
X5795996Y-5669550D01*
X5795996Y-5669550D02*
X5815043Y-5679074D01*
X5815043Y-5679074D02*
X5824567Y-5688598D01*
X5824567Y-5688598D02*
X5834091Y-5707646D01*
X5834091Y-5707646D02*
X5834091Y-5764788D01*
X5834091Y-5764788D02*
X5824567Y-5783836D01*
X5824567Y-5783836D02*
X5815043Y-5793360D01*
X5815043Y-5793360D02*
X5795996Y-5802884D01*
X5795996Y-5802884D02*
X5757901Y-5802884D01*
X5757901Y-5802884D02*
X5738853Y-5793360D01*
X5919805Y-5783836D02*
X5929329Y-5793360D01*
X5929329Y-5793360D02*
X5919805Y-5802884D01*
X5919805Y-5802884D02*
X5910282Y-5793360D01*
X5910282Y-5793360D02*
X5919805Y-5783836D01*
X5919805Y-5783836D02*
X5919805Y-5802884D01*
X5919805Y-5679074D02*
X5929329Y-5688598D01*
X5929329Y-5688598D02*
X5919805Y-5698122D01*
X5919805Y-5698122D02*
X5910282Y-5688598D01*
X5910282Y-5688598D02*
X5919805Y-5679074D01*
X5919805Y-5679074D02*
X5919805Y-5698122D01*
D10*
X4247600Y-6111400D02*
X4287600Y-6151400D01*
X4287600Y-6111400D02*
X4247600Y-6151400D01*
D11*
X4586472Y-6022884D02*
X4605520Y-6022884D01*
X4605520Y-6022884D02*
X4624567Y-6032408D01*
X4624567Y-6032408D02*
X4634091Y-6041931D01*
X4634091Y-6041931D02*
X4643615Y-6060979D01*
X4643615Y-6060979D02*
X4653139Y-6099074D01*
X4653139Y-6099074D02*
X4653139Y-6146693D01*
X4653139Y-6146693D02*
X4643615Y-6184788D01*
X4643615Y-6184788D02*
X4634091Y-6203836D01*
X4634091Y-6203836D02*
X4624567Y-6213360D01*
X4624567Y-6213360D02*
X4605520Y-6222884D01*
X4605520Y-6222884D02*
X4586472Y-6222884D01*
X4586472Y-6222884D02*
X4567424Y-6213360D01*
X4567424Y-6213360D02*
X4557901Y-6203836D01*
X4557901Y-6203836D02*
X4548377Y-6184788D01*
X4548377Y-6184788D02*
X4538853Y-6146693D01*
X4538853Y-6146693D02*
X4538853Y-6099074D01*
X4538853Y-6099074D02*
X4548377Y-6060979D01*
X4548377Y-6060979D02*
X4557901Y-6041931D01*
X4557901Y-6041931D02*
X4567424Y-6032408D01*
X4567424Y-6032408D02*
X4586472Y-6022884D01*
X4738853Y-6203836D02*
X4748377Y-6213360D01*
X4748377Y-6213360D02*
X4738853Y-6222884D01*
X4738853Y-6222884D02*
X4729329Y-6213360D01*
X4729329Y-6213360D02*
X4738853Y-6203836D01*
X4738853Y-6203836D02*
X4738853Y-6222884D01*
X4919805Y-6089550D02*
X4919805Y-6222884D01*
X4872186Y-6013360D02*
X4824567Y-6156217D01*
X4824567Y-6156217D02*
X4948377Y-6156217D01*
X5062663Y-6022884D02*
X5081710Y-6022884D01*
X5081710Y-6022884D02*
X5100758Y-6032408D01*
X5100758Y-6032408D02*
X5110282Y-6041931D01*
X5110282Y-6041931D02*
X5119805Y-6060979D01*
X5119805Y-6060979D02*
X5129329Y-6099074D01*
X5129329Y-6099074D02*
X5129329Y-6146693D01*
X5129329Y-6146693D02*
X5119805Y-6184788D01*
X5119805Y-6184788D02*
X5110282Y-6203836D01*
X5110282Y-6203836D02*
X5100758Y-6213360D01*
X5100758Y-6213360D02*
X5081710Y-6222884D01*
X5081710Y-6222884D02*
X5062663Y-6222884D01*
X5062663Y-6222884D02*
X5043615Y-6213360D01*
X5043615Y-6213360D02*
X5034091Y-6203836D01*
X5034091Y-6203836D02*
X5024567Y-6184788D01*
X5024567Y-6184788D02*
X5015044Y-6146693D01*
X5015044Y-6146693D02*
X5015044Y-6099074D01*
X5015044Y-6099074D02*
X5024567Y-6060979D01*
X5024567Y-6060979D02*
X5034091Y-6041931D01*
X5034091Y-6041931D02*
X5043615Y-6032408D01*
X5043615Y-6032408D02*
X5062663Y-6022884D01*
X5253139Y-6022884D02*
X5272186Y-6022884D01*
X5272186Y-6022884D02*
X5291234Y-6032408D01*
X5291234Y-6032408D02*
X5300758Y-6041931D01*
X5300758Y-6041931D02*
X5310282Y-6060979D01*
X5310282Y-6060979D02*
X5319805Y-6099074D01*
X5319805Y-6099074D02*
X5319805Y-6146693D01*
X5319805Y-6146693D02*
X5310282Y-6184788D01*
X5310282Y-6184788D02*
X5300758Y-6203836D01*
X5300758Y-6203836D02*
X5291234Y-6213360D01*
X5291234Y-6213360D02*
X5272186Y-6222884D01*
X5272186Y-6222884D02*
X5253139Y-6222884D01*
X5253139Y-6222884D02*
X5234091Y-6213360D01*
X5234091Y-6213360D02*
X5224567Y-6203836D01*
X5224567Y-6203836D02*
X5215044Y-6184788D01*
X5215044Y-6184788D02*
X5205520Y-6146693D01*
X5205520Y-6146693D02*
X5205520Y-6099074D01*
X5205520Y-6099074D02*
X5215044Y-6060979D01*
X5215044Y-6060979D02*
X5224567Y-6041931D01*
X5224567Y-6041931D02*
X5234091Y-6032408D01*
X5234091Y-6032408D02*
X5253139Y-6022884D01*
X5405520Y-6222884D02*
X5405520Y-6089550D01*
X5405520Y-6108598D02*
X5415044Y-6099074D01*
X5415044Y-6099074D02*
X5434091Y-6089550D01*
X5434091Y-6089550D02*
X5462663Y-6089550D01*
X5462663Y-6089550D02*
X5481710Y-6099074D01*
X5481710Y-6099074D02*
X5491234Y-6118122D01*
X5491234Y-6118122D02*
X5491234Y-6222884D01*
X5491234Y-6118122D02*
X5500758Y-6099074D01*
X5500758Y-6099074D02*
X5519805Y-6089550D01*
X5519805Y-6089550D02*
X5548377Y-6089550D01*
X5548377Y-6089550D02*
X5567425Y-6099074D01*
X5567425Y-6099074D02*
X5576948Y-6118122D01*
X5576948Y-6118122D02*
X5576948Y-6222884D01*
X5672186Y-6222884D02*
X5672186Y-6089550D01*
X5672186Y-6108598D02*
X5681710Y-6099074D01*
X5681710Y-6099074D02*
X5700758Y-6089550D01*
X5700758Y-6089550D02*
X5729329Y-6089550D01*
X5729329Y-6089550D02*
X5748377Y-6099074D01*
X5748377Y-6099074D02*
X5757901Y-6118122D01*
X5757901Y-6118122D02*
X5757901Y-6222884D01*
X5757901Y-6118122D02*
X5767424Y-6099074D01*
X5767424Y-6099074D02*
X5786472Y-6089550D01*
X5786472Y-6089550D02*
X5815043Y-6089550D01*
X5815043Y-6089550D02*
X5834091Y-6099074D01*
X5834091Y-6099074D02*
X5843615Y-6118122D01*
X5843615Y-6118122D02*
X5843615Y-6222884D01*
X6234091Y-6013360D02*
X6062663Y-6270503D01*
X6491234Y-6022884D02*
X6510282Y-6022884D01*
X6510282Y-6022884D02*
X6529329Y-6032408D01*
X6529329Y-6032408D02*
X6538853Y-6041931D01*
X6538853Y-6041931D02*
X6548377Y-6060979D01*
X6548377Y-6060979D02*
X6557901Y-6099074D01*
X6557901Y-6099074D02*
X6557901Y-6146693D01*
X6557901Y-6146693D02*
X6548377Y-6184788D01*
X6548377Y-6184788D02*
X6538853Y-6203836D01*
X6538853Y-6203836D02*
X6529329Y-6213360D01*
X6529329Y-6213360D02*
X6510282Y-6222884D01*
X6510282Y-6222884D02*
X6491234Y-6222884D01*
X6491234Y-6222884D02*
X6472186Y-6213360D01*
X6472186Y-6213360D02*
X6462663Y-6203836D01*
X6462663Y-6203836D02*
X6453139Y-6184788D01*
X6453139Y-6184788D02*
X6443615Y-6146693D01*
X6443615Y-6146693D02*
X6443615Y-6099074D01*
X6443615Y-6099074D02*
X6453139Y-6060979D01*
X6453139Y-6060979D02*
X6462663Y-6041931D01*
X6462663Y-6041931D02*
X6472186Y-6032408D01*
X6472186Y-6032408D02*
X6491234Y-6022884D01*
X6643615Y-6203836D02*
X6653139Y-6213360D01*
X6653139Y-6213360D02*
X6643615Y-6222884D01*
X6643615Y-6222884D02*
X6634091Y-6213360D01*
X6634091Y-6213360D02*
X6643615Y-6203836D01*
X6643615Y-6203836D02*
X6643615Y-6222884D01*
X6776948Y-6022884D02*
X6795996Y-6022884D01*
X6795996Y-6022884D02*
X6815044Y-6032408D01*
X6815044Y-6032408D02*
X6824567Y-6041931D01*
X6824567Y-6041931D02*
X6834091Y-6060979D01*
X6834091Y-6060979D02*
X6843615Y-6099074D01*
X6843615Y-6099074D02*
X6843615Y-6146693D01*
X6843615Y-6146693D02*
X6834091Y-6184788D01*
X6834091Y-6184788D02*
X6824567Y-6203836D01*
X6824567Y-6203836D02*
X6815044Y-6213360D01*
X6815044Y-6213360D02*
X6795996Y-6222884D01*
X6795996Y-6222884D02*
X6776948Y-6222884D01*
X6776948Y-6222884D02*
X6757901Y-6213360D01*
X6757901Y-6213360D02*
X6748377Y-6203836D01*
X6748377Y-6203836D02*
X6738853Y-6184788D01*
X6738853Y-6184788D02*
X6729329Y-6146693D01*
X6729329Y-6146693D02*
X6729329Y-6099074D01*
X6729329Y-6099074D02*
X6738853Y-6060979D01*
X6738853Y-6060979D02*
X6748377Y-6041931D01*
X6748377Y-6041931D02*
X6757901Y-6032408D01*
X6757901Y-6032408D02*
X6776948Y-6022884D01*
X7034091Y-6222884D02*
X6919806Y-6222884D01*
X6976948Y-6222884D02*
X6976948Y-6022884D01*
X6976948Y-6022884D02*
X6957901Y-6051455D01*
X6957901Y-6051455D02*
X6938853Y-6070503D01*
X6938853Y-6070503D02*
X6919806Y-6080027D01*
X7215044Y-6022884D02*
X7119806Y-6022884D01*
X7119806Y-6022884D02*
X7110282Y-6118122D01*
X7110282Y-6118122D02*
X7119806Y-6108598D01*
X7119806Y-6108598D02*
X7138853Y-6099074D01*
X7138853Y-6099074D02*
X7186472Y-6099074D01*
X7186472Y-6099074D02*
X7205520Y-6108598D01*
X7205520Y-6108598D02*
X7215044Y-6118122D01*
X7215044Y-6118122D02*
X7224567Y-6137169D01*
X7224567Y-6137169D02*
X7224567Y-6184788D01*
X7224567Y-6184788D02*
X7215044Y-6203836D01*
X7215044Y-6203836D02*
X7205520Y-6213360D01*
X7205520Y-6213360D02*
X7186472Y-6222884D01*
X7186472Y-6222884D02*
X7138853Y-6222884D01*
X7138853Y-6222884D02*
X7119806Y-6213360D01*
X7119806Y-6213360D02*
X7110282Y-6203836D01*
X7291234Y-6022884D02*
X7424567Y-6022884D01*
X7424567Y-6022884D02*
X7338853Y-6222884D01*
X7491234Y-6022884D02*
X7491234Y-6060979D01*
X7567425Y-6022884D02*
X7567425Y-6060979D01*
X7862663Y-6299074D02*
X7853139Y-6289550D01*
X7853139Y-6289550D02*
X7834091Y-6260979D01*
X7834091Y-6260979D02*
X7824568Y-6241931D01*
X7824568Y-6241931D02*
X7815044Y-6213360D01*
X7815044Y-6213360D02*
X7805520Y-6165741D01*
X7805520Y-6165741D02*
X7805520Y-6127646D01*
X7805520Y-6127646D02*
X7815044Y-6080027D01*
X7815044Y-6080027D02*
X7824568Y-6051455D01*
X7824568Y-6051455D02*
X7834091Y-6032408D01*
X7834091Y-6032408D02*
X7853139Y-6003836D01*
X7853139Y-6003836D02*
X7862663Y-5994312D01*
X8024568Y-6089550D02*
X8024568Y-6222884D01*
X7976948Y-6013360D02*
X7929329Y-6156217D01*
X7929329Y-6156217D02*
X8053139Y-6156217D01*
X8224568Y-6022884D02*
X8129329Y-6022884D01*
X8129329Y-6022884D02*
X8119806Y-6118122D01*
X8119806Y-6118122D02*
X8129329Y-6108598D01*
X8129329Y-6108598D02*
X8148377Y-6099074D01*
X8148377Y-6099074D02*
X8195996Y-6099074D01*
X8195996Y-6099074D02*
X8215044Y-6108598D01*
X8215044Y-6108598D02*
X8224568Y-6118122D01*
X8224568Y-6118122D02*
X8234091Y-6137169D01*
X8234091Y-6137169D02*
X8234091Y-6184788D01*
X8234091Y-6184788D02*
X8224568Y-6203836D01*
X8224568Y-6203836D02*
X8215044Y-6213360D01*
X8215044Y-6213360D02*
X8195996Y-6222884D01*
X8195996Y-6222884D02*
X8148377Y-6222884D01*
X8148377Y-6222884D02*
X8129329Y-6213360D01*
X8129329Y-6213360D02*
X8119806Y-6203836D01*
X8472187Y-6222884D02*
X8472187Y-6022884D01*
X8557901Y-6222884D02*
X8557901Y-6118122D01*
X8557901Y-6118122D02*
X8548377Y-6099074D01*
X8548377Y-6099074D02*
X8529330Y-6089550D01*
X8529330Y-6089550D02*
X8500758Y-6089550D01*
X8500758Y-6089550D02*
X8481711Y-6099074D01*
X8481711Y-6099074D02*
X8472187Y-6108598D01*
X8681711Y-6222884D02*
X8662663Y-6213360D01*
X8662663Y-6213360D02*
X8653139Y-6203836D01*
X8653139Y-6203836D02*
X8643615Y-6184788D01*
X8643615Y-6184788D02*
X8643615Y-6127646D01*
X8643615Y-6127646D02*
X8653139Y-6108598D01*
X8653139Y-6108598D02*
X8662663Y-6099074D01*
X8662663Y-6099074D02*
X8681711Y-6089550D01*
X8681711Y-6089550D02*
X8710282Y-6089550D01*
X8710282Y-6089550D02*
X8729330Y-6099074D01*
X8729330Y-6099074D02*
X8738853Y-6108598D01*
X8738853Y-6108598D02*
X8748377Y-6127646D01*
X8748377Y-6127646D02*
X8748377Y-6184788D01*
X8748377Y-6184788D02*
X8738853Y-6203836D01*
X8738853Y-6203836D02*
X8729330Y-6213360D01*
X8729330Y-6213360D02*
X8710282Y-6222884D01*
X8710282Y-6222884D02*
X8681711Y-6222884D01*
X8862663Y-6222884D02*
X8843615Y-6213360D01*
X8843615Y-6213360D02*
X8834092Y-6194312D01*
X8834092Y-6194312D02*
X8834092Y-6022884D01*
X9015044Y-6213360D02*
X8995996Y-6222884D01*
X8995996Y-6222884D02*
X8957901Y-6222884D01*
X8957901Y-6222884D02*
X8938853Y-6213360D01*
X8938853Y-6213360D02*
X8929330Y-6194312D01*
X8929330Y-6194312D02*
X8929330Y-6118122D01*
X8929330Y-6118122D02*
X8938853Y-6099074D01*
X8938853Y-6099074D02*
X8957901Y-6089550D01*
X8957901Y-6089550D02*
X8995996Y-6089550D01*
X8995996Y-6089550D02*
X9015044Y-6099074D01*
X9015044Y-6099074D02*
X9024568Y-6118122D01*
X9024568Y-6118122D02*
X9024568Y-6137169D01*
X9024568Y-6137169D02*
X8929330Y-6156217D01*
X9100758Y-6213360D02*
X9119806Y-6222884D01*
X9119806Y-6222884D02*
X9157901Y-6222884D01*
X9157901Y-6222884D02*
X9176949Y-6213360D01*
X9176949Y-6213360D02*
X9186473Y-6194312D01*
X9186473Y-6194312D02*
X9186473Y-6184788D01*
X9186473Y-6184788D02*
X9176949Y-6165741D01*
X9176949Y-6165741D02*
X9157901Y-6156217D01*
X9157901Y-6156217D02*
X9129330Y-6156217D01*
X9129330Y-6156217D02*
X9110282Y-6146693D01*
X9110282Y-6146693D02*
X9100758Y-6127646D01*
X9100758Y-6127646D02*
X9100758Y-6118122D01*
X9100758Y-6118122D02*
X9110282Y-6099074D01*
X9110282Y-6099074D02*
X9129330Y-6089550D01*
X9129330Y-6089550D02*
X9157901Y-6089550D01*
X9157901Y-6089550D02*
X9176949Y-6099074D01*
X9253139Y-6299074D02*
X9262663Y-6289550D01*
X9262663Y-6289550D02*
X9281711Y-6260979D01*
X9281711Y-6260979D02*
X9291234Y-6241931D01*
X9291234Y-6241931D02*
X9300758Y-6213360D01*
X9300758Y-6213360D02*
X9310282Y-6165741D01*
X9310282Y-6165741D02*
X9310282Y-6127646D01*
X9310282Y-6127646D02*
X9300758Y-6080027D01*
X9300758Y-6080027D02*
X9291234Y-6051455D01*
X9291234Y-6051455D02*
X9281711Y-6032408D01*
X9281711Y-6032408D02*
X9262663Y-6003836D01*
X9262663Y-6003836D02*
X9253139Y-5994312D01*
M02*
