%TF.GenerationSoftware,KiCad,Pcbnew,7.0.10-7.0.10~ubuntu22.04.1*%
%TF.CreationDate,2024-03-22T20:20:15-04:00*%
%TF.ProjectId,mechanicalkeyboard-touchid-hub,6d656368-616e-4696-9361-6c6b6579626f,rev?*%
%TF.SameCoordinates,Original*%
%TF.FileFunction,Paste,Top*%
%TF.FilePolarity,Positive*%
%FSLAX46Y46*%
G04 Gerber Fmt 4.6, Leading zero omitted, Abs format (unit mm)*
G04 Created by KiCad (PCBNEW 7.0.10-7.0.10~ubuntu22.04.1) date 2024-03-22 20:20:15*
%MOMM*%
%LPD*%
G01*
G04 APERTURE LIST*
G04 Aperture macros list*
%AMRoundRect*
0 Rectangle with rounded corners*
0 $1 Rounding radius*
0 $2 $3 $4 $5 $6 $7 $8 $9 X,Y pos of 4 corners*
0 Add a 4 corners polygon primitive as box body*
4,1,4,$2,$3,$4,$5,$6,$7,$8,$9,$2,$3,0*
0 Add four circle primitives for the rounded corners*
1,1,$1+$1,$2,$3*
1,1,$1+$1,$4,$5*
1,1,$1+$1,$6,$7*
1,1,$1+$1,$8,$9*
0 Add four rect primitives between the rounded corners*
20,1,$1+$1,$2,$3,$4,$5,0*
20,1,$1+$1,$4,$5,$6,$7,0*
20,1,$1+$1,$6,$7,$8,$9,0*
20,1,$1+$1,$8,$9,$2,$3,0*%
G04 Aperture macros list end*
%ADD10RoundRect,0.237500X-0.237500X0.250000X-0.237500X-0.250000X0.237500X-0.250000X0.237500X0.250000X0*%
%ADD11RoundRect,0.237500X0.237500X-0.250000X0.237500X0.250000X-0.237500X0.250000X-0.237500X-0.250000X0*%
%ADD12RoundRect,0.237500X-0.250000X-0.237500X0.250000X-0.237500X0.250000X0.237500X-0.250000X0.237500X0*%
%ADD13RoundRect,0.150000X-0.825000X-0.150000X0.825000X-0.150000X0.825000X0.150000X-0.825000X0.150000X0*%
%ADD14RoundRect,0.237500X-0.237500X0.300000X-0.237500X-0.300000X0.237500X-0.300000X0.237500X0.300000X0*%
%ADD15RoundRect,0.125000X0.125000X-0.625000X0.125000X0.625000X-0.125000X0.625000X-0.125000X-0.625000X0*%
%ADD16RoundRect,0.125000X0.625000X-0.125000X0.625000X0.125000X-0.625000X0.125000X-0.625000X-0.125000X0*%
%ADD17RoundRect,0.237500X0.237500X-0.300000X0.237500X0.300000X-0.237500X0.300000X-0.237500X-0.300000X0*%
%ADD18RoundRect,0.237500X-0.300000X-0.237500X0.300000X-0.237500X0.300000X0.237500X-0.300000X0.237500X0*%
%ADD19RoundRect,0.150000X-0.512500X-0.150000X0.512500X-0.150000X0.512500X0.150000X-0.512500X0.150000X0*%
%ADD20R,1.700000X2.100000*%
G04 APERTURE END LIST*
D10*
%TO.C,R15*%
X93700000Y-50287500D03*
X93700000Y-52112500D03*
%TD*%
D11*
%TO.C,R14*%
X89300000Y-44125000D03*
X89300000Y-42300000D03*
%TD*%
D12*
%TO.C,R13*%
X81900000Y-42300000D03*
X83725000Y-42300000D03*
%TD*%
%TO.C,R7*%
X93700000Y-42200000D03*
X95525000Y-42200000D03*
%TD*%
%TO.C,R6*%
X93700000Y-40676000D03*
X95525000Y-40676000D03*
%TD*%
D10*
%TO.C,R5*%
X86868000Y-49276000D03*
X86868000Y-51101000D03*
%TD*%
D11*
%TO.C,R9*%
X108712000Y-49784000D03*
X108712000Y-47959000D03*
%TD*%
D10*
%TO.C,R10*%
X68580000Y-51308000D03*
X68580000Y-53133000D03*
%TD*%
D13*
%TO.C,U3*%
X93094000Y-44704000D03*
X93094000Y-45974000D03*
X93094000Y-47244000D03*
X93094000Y-48514000D03*
X98044000Y-48514000D03*
X98044000Y-47244000D03*
X98044000Y-45974000D03*
X98044000Y-44704000D03*
%TD*%
D14*
%TO.C,C5*%
X59436000Y-41963000D03*
X59436000Y-43688000D03*
%TD*%
D10*
%TO.C,R4*%
X88392000Y-49276000D03*
X88392000Y-51101000D03*
%TD*%
D12*
%TO.C,R3*%
X47780000Y-43180000D03*
X49605000Y-43180000D03*
%TD*%
%TO.C,R2*%
X47780000Y-46736000D03*
X49605000Y-46736000D03*
%TD*%
D15*
%TO.C,U1*%
X74156000Y-50800000D03*
X74956000Y-50800000D03*
X75756000Y-50800000D03*
X76556000Y-50800000D03*
X77356000Y-50800000D03*
X78156000Y-50800000D03*
X78956000Y-50800000D03*
X79756000Y-50800000D03*
D16*
X81131000Y-49425000D03*
X81131000Y-48625000D03*
X81131000Y-47825000D03*
X81131000Y-47025000D03*
X81131000Y-46225000D03*
X81131000Y-45425000D03*
X81131000Y-44625000D03*
X81131000Y-43825000D03*
D15*
X79756000Y-42450000D03*
X78956000Y-42450000D03*
X78156000Y-42450000D03*
X77356000Y-42450000D03*
X76556000Y-42450000D03*
X75756000Y-42450000D03*
X74956000Y-42450000D03*
X74156000Y-42450000D03*
D16*
X72781000Y-43825000D03*
X72781000Y-44625000D03*
X72781000Y-45425000D03*
X72781000Y-46225000D03*
X72781000Y-47025000D03*
X72781000Y-47825000D03*
X72781000Y-48625000D03*
X72781000Y-49425000D03*
%TD*%
D17*
%TO.C,C2*%
X100714000Y-45720000D03*
X100714000Y-43995000D03*
%TD*%
D18*
%TO.C,C1*%
X58727000Y-39624000D03*
X60452000Y-39624000D03*
%TD*%
D17*
%TO.C,C4*%
X67056000Y-50646500D03*
X67056000Y-48921500D03*
%TD*%
D18*
%TO.C,C6*%
X49784000Y-39624000D03*
X51509000Y-39624000D03*
%TD*%
D19*
%TO.C,U2*%
X53848000Y-39624000D03*
X53848000Y-40574000D03*
X53848000Y-41524000D03*
X56123000Y-41524000D03*
X56123000Y-39624000D03*
%TD*%
D20*
%TO.C,Y1*%
X61816000Y-42868000D03*
X61816000Y-48768000D03*
X64516000Y-48768000D03*
X64516000Y-42868000D03*
%TD*%
D11*
%TO.C,R1*%
X51308000Y-46736000D03*
X51308000Y-44911000D03*
%TD*%
D14*
%TO.C,C3*%
X100714000Y-47752000D03*
X100714000Y-49477000D03*
%TD*%
D10*
%TO.C,R8*%
X108712000Y-42879000D03*
X108712000Y-44704000D03*
%TD*%
D12*
%TO.C,R11*%
X51919500Y-50800000D03*
X53744500Y-50800000D03*
%TD*%
%TO.C,R12*%
X54864000Y-43688000D03*
X56689000Y-43688000D03*
%TD*%
M02*
