%TF.GenerationSoftware,KiCad,Pcbnew,7.0.10-7.0.10~ubuntu22.04.1*%
%TF.CreationDate,2024-03-22T20:20:15-04:00*%
%TF.ProjectId,mechanicalkeyboard-touchid-hub,6d656368-616e-4696-9361-6c6b6579626f,rev?*%
%TF.SameCoordinates,Original*%
%TF.FileFunction,Legend,Bot*%
%TF.FilePolarity,Positive*%
%FSLAX46Y46*%
G04 Gerber Fmt 4.6, Leading zero omitted, Abs format (unit mm)*
G04 Created by KiCad (PCBNEW 7.0.10-7.0.10~ubuntu22.04.1) date 2024-03-22 20:20:15*
%MOMM*%
%LPD*%
G01*
G04 APERTURE LIST*
%ADD10C,0.150000*%
%ADD11C,0.120000*%
G04 APERTURE END LIST*
D10*
X78841333Y-40602819D02*
X78841333Y-41317104D01*
X78841333Y-41317104D02*
X78888952Y-41459961D01*
X78888952Y-41459961D02*
X78984190Y-41555200D01*
X78984190Y-41555200D02*
X79127047Y-41602819D01*
X79127047Y-41602819D02*
X79222285Y-41602819D01*
X78365142Y-41602819D02*
X78365142Y-40602819D01*
X78365142Y-40602819D02*
X77984190Y-40602819D01*
X77984190Y-40602819D02*
X77888952Y-40650438D01*
X77888952Y-40650438D02*
X77841333Y-40698057D01*
X77841333Y-40698057D02*
X77793714Y-40793295D01*
X77793714Y-40793295D02*
X77793714Y-40936152D01*
X77793714Y-40936152D02*
X77841333Y-41031390D01*
X77841333Y-41031390D02*
X77888952Y-41079009D01*
X77888952Y-41079009D02*
X77984190Y-41126628D01*
X77984190Y-41126628D02*
X78365142Y-41126628D01*
X77412761Y-40698057D02*
X77365142Y-40650438D01*
X77365142Y-40650438D02*
X77269904Y-40602819D01*
X77269904Y-40602819D02*
X77031809Y-40602819D01*
X77031809Y-40602819D02*
X76936571Y-40650438D01*
X76936571Y-40650438D02*
X76888952Y-40698057D01*
X76888952Y-40698057D02*
X76841333Y-40793295D01*
X76841333Y-40793295D02*
X76841333Y-40888533D01*
X76841333Y-40888533D02*
X76888952Y-41031390D01*
X76888952Y-41031390D02*
X77460380Y-41602819D01*
X77460380Y-41602819D02*
X76841333Y-41602819D01*
X84937333Y-40602819D02*
X84937333Y-41317104D01*
X84937333Y-41317104D02*
X84984952Y-41459961D01*
X84984952Y-41459961D02*
X85080190Y-41555200D01*
X85080190Y-41555200D02*
X85223047Y-41602819D01*
X85223047Y-41602819D02*
X85318285Y-41602819D01*
X84461142Y-41602819D02*
X84461142Y-40602819D01*
X84461142Y-40602819D02*
X84080190Y-40602819D01*
X84080190Y-40602819D02*
X83984952Y-40650438D01*
X83984952Y-40650438D02*
X83937333Y-40698057D01*
X83937333Y-40698057D02*
X83889714Y-40793295D01*
X83889714Y-40793295D02*
X83889714Y-40936152D01*
X83889714Y-40936152D02*
X83937333Y-41031390D01*
X83937333Y-41031390D02*
X83984952Y-41079009D01*
X83984952Y-41079009D02*
X84080190Y-41126628D01*
X84080190Y-41126628D02*
X84461142Y-41126628D01*
X83556380Y-40602819D02*
X82937333Y-40602819D01*
X82937333Y-40602819D02*
X83270666Y-40983771D01*
X83270666Y-40983771D02*
X83127809Y-40983771D01*
X83127809Y-40983771D02*
X83032571Y-41031390D01*
X83032571Y-41031390D02*
X82984952Y-41079009D01*
X82984952Y-41079009D02*
X82937333Y-41174247D01*
X82937333Y-41174247D02*
X82937333Y-41412342D01*
X82937333Y-41412342D02*
X82984952Y-41507580D01*
X82984952Y-41507580D02*
X83032571Y-41555200D01*
X83032571Y-41555200D02*
X83127809Y-41602819D01*
X83127809Y-41602819D02*
X83413523Y-41602819D01*
X83413523Y-41602819D02*
X83508761Y-41555200D01*
X83508761Y-41555200D02*
X83556380Y-41507580D01*
X72969333Y-40602819D02*
X72969333Y-41317104D01*
X72969333Y-41317104D02*
X73016952Y-41459961D01*
X73016952Y-41459961D02*
X73112190Y-41555200D01*
X73112190Y-41555200D02*
X73255047Y-41602819D01*
X73255047Y-41602819D02*
X73350285Y-41602819D01*
X72493142Y-41602819D02*
X72493142Y-40602819D01*
X72493142Y-40602819D02*
X72112190Y-40602819D01*
X72112190Y-40602819D02*
X72016952Y-40650438D01*
X72016952Y-40650438D02*
X71969333Y-40698057D01*
X71969333Y-40698057D02*
X71921714Y-40793295D01*
X71921714Y-40793295D02*
X71921714Y-40936152D01*
X71921714Y-40936152D02*
X71969333Y-41031390D01*
X71969333Y-41031390D02*
X72016952Y-41079009D01*
X72016952Y-41079009D02*
X72112190Y-41126628D01*
X72112190Y-41126628D02*
X72493142Y-41126628D01*
X70969333Y-41602819D02*
X71540761Y-41602819D01*
X71255047Y-41602819D02*
X71255047Y-40602819D01*
X71255047Y-40602819D02*
X71350285Y-40745676D01*
X71350285Y-40745676D02*
X71445523Y-40840914D01*
X71445523Y-40840914D02*
X71540761Y-40888533D01*
D11*
%TO.C,JP2*%
X75958000Y-38116000D02*
X75958000Y-40116000D01*
X75958000Y-40116000D02*
X80058000Y-40116000D01*
X80058000Y-38116000D02*
X75958000Y-38116000D01*
X80058000Y-40116000D02*
X80058000Y-38116000D01*
%TO.C,JP3*%
X86154000Y-40116000D02*
X86154000Y-38116000D01*
X86154000Y-38116000D02*
X82054000Y-38116000D01*
X82054000Y-40116000D02*
X86154000Y-40116000D01*
X82054000Y-38116000D02*
X82054000Y-40116000D01*
%TO.C,JP1*%
X70086000Y-38116000D02*
X70086000Y-40116000D01*
X70086000Y-40116000D02*
X74186000Y-40116000D01*
X74186000Y-38116000D02*
X70086000Y-38116000D01*
X74186000Y-40116000D02*
X74186000Y-38116000D01*
%TD*%
M02*
