M48
; DRILL file {KiCad 7.0.10-7.0.10~ubuntu22.04.1} date Fri 22 Mar 2024 08:20:17 PM EDT
; FORMAT={-:-/ absolute / metric / decimal}
; #@! TF.CreationDate,2024-03-22T20:20:17-04:00
; #@! TF.GenerationSoftware,Kicad,Pcbnew,7.0.10-7.0.10~ubuntu22.04.1
; #@! TF.FileFunction,Plated,1,2,PTH
FMAT,2
METRIC
; #@! TA.AperFunction,Plated,PTH,ViaDrill
T1C0.400
%
G90
G05
T1
X46.736Y-41.656
X48.26Y-38.608
X48.768Y-45.212
X49.276Y-50.292
X50.8Y-41.148
X52.832Y-44.196
X53.848Y-43.688
X55.88Y-50.8
X57.912Y-42.164
X57.912Y-48.768
X64.7Y-53.3
X66.548Y-44.196
X67.056Y-48.768
X68.072Y-39.116
X69.088Y-41.148
X70.104Y-46.228
X70.612Y-48.768
X72.136Y-41.148
X74.168Y-48.768
X74.676Y-46.228
X75.692Y-47.752
X77.724Y-40.64
X78.232Y-44.704
X79.248Y-47.244
X81.28Y-39.116
X83.312Y-49.276
X83.82Y-40.64
X84.836Y-49.276
X84.836Y-52.324
X85.7Y-41.1
X88.9Y-45.72
X90.0Y-38.8
X90.424Y-47.244
X90.424Y-50.292
X90.8Y-44.7
X91.3Y-42.0
X92.0Y-52.0
X95.6Y-47.6
X96.012Y-44.704
X98.044Y-51.308
X102.616Y-53.34
X104.14Y-46.736
X106.172Y-53.34
X106.68Y-40.132
X107.696Y-46.228
M30
